<?xml version="1.0" encoding="UTF-8" standalone="no"?>
<!-- Generated by Pixelmator Pro 3.6.7 -->

<svg
   width="3507"
   height="2480"
   viewBox="0 0 3507 2480"
   version="1.1"
   id="svg46"
   sodipodi:docname="BORE STANE EXPLORERS Emb Round.svg"
   inkscape:version="1.3.2 (091e20e, 2023-11-25)"
   xmlns:inkscape="http://www.inkscape.org/namespaces/inkscape"
   xmlns:sodipodi="http://sodipodi.sourceforge.net/DTD/sodipodi-0.dtd"
   xmlns="http://www.w3.org/2000/svg"
   xmlns:svg="http://www.w3.org/2000/svg">
  <defs
     id="defs46">
    <clipPath
       id="clipPath1">
      <path
         d="m 2009.6162,1143.9336 c 0,144.2837 -116.9604,261.2394 -261.2389,261.2394 -144.2738,0 -261.2394,-116.9557 -261.2394,-261.2394 0,-144.28065 116.9656,-261.24403 261.2394,-261.24403 144.2785,0 261.2389,116.96338 261.2389,261.24403 z"
         id="path5" />
    </clipPath>
  </defs>
  <sodipodi:namedview
     id="namedview46"
     pagecolor="#ffffff"
     bordercolor="#000000"
     borderopacity="0.25"
     inkscape:showpageshadow="2"
     inkscape:pageopacity="0.0"
     inkscape:pagecheckerboard="0"
     inkscape:deskcolor="#d1d1d1"
     inkscape:zoom="0.5"
     inkscape:cx="1751"
     inkscape:cy="1239"
     inkscape:window-width="912"
     inkscape:window-height="926"
     inkscape:window-x="760"
     inkscape:window-y="25"
     inkscape:window-maximized="0"
     inkscape:current-layer="layer1"
     inkscape:export-bgcolor="#ffffff00" />
  <g
     id="layer1"
     inkscape:label="Black background">
    <path
       id="Path"
       fill="#1d1d1b"
       stroke="none"
       d="m 1748.3773,1580.8344 c -240.9053,0 -436.9007,-195.9903 -436.9007,-436.9008 0,-240.91004 195.9954,-436.9076 436.9007,-436.9076 240.9152,0 436.9054,195.99756 436.9054,436.9076 0,240.9105 -195.9902,436.9008 -436.9054,436.9008 z"
       style="display:inline" />
    <path
       id="path1"
       fill="#1d1d1b"
       stroke="none"
       d="m 1748.3772,1601.5938 c -252.3544,0 -457.66,-205.3056 -457.66,-457.6601 0,-252.35948 205.3056,-457.66746 457.66,-457.66746 252.3594,0 457.665,205.30798 457.665,457.66746 0,252.3545 -205.3056,457.6601 -457.665,457.6601 z m 0,-873.8084 c -229.4611,0 -416.1407,186.68225 -416.1407,416.1483 0,229.4611 186.6796,416.1408 416.1407,416.1408 229.4611,0 416.1457,-186.6797 416.1457,-416.1408 0,-229.46605 -186.6846,-416.1483 -416.1457,-416.1483 z"
       style="display:inline"
       inkscape:export-filename="bs-original.png"
       inkscape:export-xdpi="96"
       inkscape:export-ydpi="96" />
  </g>
  <g
     id="layer2"
     inkscape:label="Outer circle"
     style="display:inline">
    <g
       id="g4"
       style="display:inline"
       inkscape:label="Outer circle">
      <path
         id="path2"
         fill="#3a3a2e"
         stroke="none"
         d="m 1748.3773,1572.0967 c -236.088,0 -428.1631,-192.07 -428.1631,-428.1631 0,-236.09278 192.0751,-428.16981 428.1631,-428.16981 236.0954,0 428.1679,192.07703 428.1679,428.16981 0,236.0931 -192.0725,428.1631 -428.1679,428.1631 z"
         style="display:inline"
         inkscape:label="Green border" />
      <path
         id="path3"
         fill="#af1a1a"
         stroke="none"
         d="m 1748.3772,1601.5938 c -252.3544,0 -457.66,-205.3056 -457.66,-457.6601 0,-252.35948 205.3056,-457.66746 457.66,-457.66746 252.3594,0 457.665,205.30798 457.665,457.66746 0,252.3545 -205.3056,457.6601 -457.665,457.6601 z m 0,-873.8084 c -229.4611,0 -416.1407,186.68225 -416.1407,416.1483 0,229.4611 186.6796,416.1408 416.1407,416.1408 229.4611,0 416.1457,-186.6797 416.1457,-416.1408 0,-229.46605 -186.6846,-416.1483 -416.1457,-416.1483 z"
         style="display:inline"
         inkscape:label="Red border" />
    </g>
    <g
       id="g47"
       inkscape:label="Text in outer circle"
       style="display:inline">
      <path
         id="path9"
         fill="#af1a1a"
         stroke="none"
         d="m 1427.2463,1065.83 c -6.6041,6.6041 -17.3116,6.6041 -23.9157,0 -6.6042,-6.6042 -6.6042,-17.3116 0,-23.9158 6.6041,-6.6041 17.3116,-6.6041 23.9157,0 6.6043,6.6042 6.6043,17.3116 0,23.9158 z"
         style="display:inline"
         inkscape:label="left red dot" />
      <path
         id="path10"
         fill="#af1a1a"
         stroke="none"
         d="m 2091.7476,1065.83 c -6.604,6.6041 -17.3116,6.6041 -23.9156,0 -6.6042,-6.6042 -6.6042,-17.3116 0,-23.9158 6.604,-6.6041 17.3116,-6.6041 23.9156,0 6.6042,6.6042 6.6042,17.3116 0,23.9158 z"
         style="display:inline"
         inkscape:label="right red dot" />
      <g
         id="g11"
         style="display:inline"
         inkscape:label="BORESTANE">
        <path
           id="path21"
           fill="#ebb940"
           stroke="none"
           d="m 1497.8931,916.22888 c 3.8112,0.0659 7.4705,1.46472 10.9778,4.20166 4.8048,3.74024 7.2324,8.48169 7.278,14.20117 0.051,5.72217 -2.3415,11.68494 -7.1817,17.89112 l -21.1398,27.11523 -57.0687,-44.49182 20.5113,-26.30689 c 4.6323,-5.93493 9.6195,-9.6145 14.9817,-11.03857 5.3572,-1.41162 10.3292,-0.33716 14.916,3.24109 2.97,2.31616 4.9517,5.13928 5.9501,8.47913 0.9985,3.33996 0.9124,6.80664 -0.2483,10.41797 3.5377,-2.53931 7.2122,-3.77088 11.0236,-3.71009 z m -34.3073,24.72559 9.275,-11.90027 c 2.524,-3.23621 3.8316,-6.05408 3.9228,-8.45642 0.096,-2.40247 -0.9933,-4.48804 -3.2538,-6.25171 -2.377,-1.84998 -4.7185,-2.44043 -7.0247,-1.7638 -2.3009,0.67664 -4.7185,2.63807 -7.2425,5.87159 l -9.2799,11.89782 z m 38.595,-3.09924 c 0.046,-2.39222 -1.2013,-4.57923 -3.7354,-6.55079 -2.5391,-1.98156 -4.9871,-2.67859 -7.354,-2.0957 -2.3669,0.58789 -4.8504,2.55688 -7.4605,5.89941 l -10.4153,13.35743 14.5764,11.36059 10.4101,-13.35998 c 2.6103,-3.34754 3.933,-6.21119 3.9787,-8.61096 z" />
        <path
           id="path22"
           fill="#ebb940"
           stroke="none"
           d="m 1540.3398,913.69226 c -6.0465,0.89453 -11.9256,0.038 -17.6375,-2.55444 -5.7121,-2.60254 -10.8969,-6.85474 -15.5597,-12.76441 -4.6627,-5.90954 -7.5923,-11.94592 -8.7884,-18.10388 -1.1961,-6.15539 -0.6488,-12.05993 1.6523,-17.70862 2.2959,-5.64599 6.2694,-10.70154 11.9104,-15.14636 5.641,-4.44995 11.4746,-7.13123 17.5058,-8.05872 6.0262,-0.91723 11.8953,-0.0836 17.6022,2.51905 5.7169,2.60266 10.9017,6.84961 15.5596,12.7644 4.6628,5.90454 7.5923,11.9408 8.7934,18.10132 1.1961,6.15796 0.6538,12.0752 -1.6218,17.74658 -2.2758,5.67896 -6.234,10.73963 -11.875,15.19214 -5.641,4.44983 -11.4897,7.12341 -17.5413,8.01294 z m 17.0649,-31.56519 c 0.086,-5.47119 -2.3517,-11.35546 -7.3085,-17.63769 -4.9618,-6.28198 -10.0858,-10.0199 -15.3771,-11.20837 -5.2914,-1.1836 -10.3342,0.11145 -15.1136,3.88208 -4.7795,3.77099 -7.1969,8.36291 -7.2477,13.76049 -0.056,5.40284 2.4025,11.24915 7.3591,17.53113 4.9569,6.28467 10.091,10.03272 15.4025,11.24402 5.3218,1.21643 10.3393,-0.0431 15.068,-3.77331 4.7237,-3.73023 7.1311,-8.32972 7.2173,-13.79835 z" />
        <path
           id="path23"
           fill="#ebb940"
           stroke="none"
           d="m 1652.1002,852.2699 -15.9093,7.16894 -20.9015,-15.9143 c -1.6675,-1.20105 -3.3147,-1.86512 -4.9518,-1.99427 -1.6318,-0.12439 -3.4464,0.2583 -5.4432,1.1604 l -7.2071,3.24378 11.5506,25.64306 -14.409,6.49231 -29.7255,-65.97863 30.3234,-13.65406 c 7.7392,-3.48694 14.3483,-4.41943 19.8422,-2.80786 5.4942,1.61695 9.6907,5.63867 12.5846,12.06263 2.2503,4.99462 2.7421,9.79943 1.4851,14.41418 -1.2569,4.62207 -4.1763,8.60083 -8.7529,11.94079 3.8264,-0.67651 7.8355,0.48133 12.032,3.47181 z m -37.5458,-29.86218 c 1.2115,-2.30872 1.1202,-5.02784 -0.2888,-8.14234 -1.4343,-3.18274 -3.4109,-5.06824 -5.9299,-5.66125 -2.5138,-0.59058 -5.869,0.0531 -10.0453,1.93347 l -13.9479,6.28235 8.1802,18.15686 13.9479,-6.27686 c 4.1763,-1.8855 6.8725,-3.98132 8.0838,-6.29223 z" />
        <path
           id="path24"
           fill="#ebb940"
           stroke="none"
           d="m 1660.2805,850.79993 -15.291,-70.73035 48.7568,-10.53662 2.6254,12.1333 -33.5063,7.24756 3.5781,16.5531 31.4994,-6.80676 2.6252,12.13354 -31.5043,6.81177 3.8418,17.75415 33.5114,-7.23755 2.6202,12.13843 z" />
        <path
           id="path25"
           fill="#ebb940"
           stroke="none"
           d="m 1758.5087,837.33362 c -4.9163,-1.91065 -8.9303,-4.30298 -12.0371,-7.19177 l 6.1123,-10.89685 c 6.5228,5.45105 14.1151,8.56274 22.7718,9.32568 4.5005,0.39526 8.0231,-0.0331 10.5774,-1.28503 2.5442,-1.25171 3.933,-3.17505 4.161,-5.75733 0.2079,-2.32141 -0.7399,-4.22705 -2.8432,-5.7196 -2.1034,-1.4928 -5.9249,-3.09668 -11.4747,-4.81995 -6.2288,-1.85754 -11.1451,-3.86963 -14.7689,-6.04651 -3.6188,-2.17163 -6.1782,-4.68555 -7.6783,-7.52893 -1.5004,-2.84583 -2.078,-6.24646 -1.7334,-10.1947 0.3851,-4.3689 1.9411,-8.1449 4.6628,-11.34033 2.7166,-3.19288 6.3455,-5.56739 10.8815,-7.1261 4.5311,-1.55847 9.6601,-2.08789 15.3874,-1.58106 5.1138,0.45093 9.9692,1.63953 14.5763,3.55274 4.6071,1.91577 8.1903,4.26233 10.7649,7.02722 l -6.1173,10.89929 c -6.1832,-5.42578 -12.9189,-8.45129 -20.2123,-9.1001 -4.156,-0.36743 -7.5009,0.14954 -10.0301,1.53809 -2.5291,1.39136 -3.9179,3.48205 -4.1611,6.27978 -0.1419,1.63697 0.1977,3.02051 1.0239,4.16101 0.831,1.14039 2.2806,2.20728 4.3536,3.21583 2.078,1.0061 5.053,2.13122 8.9252,3.36279 9.0925,2.86352 15.519,6.07178 19.2949,9.63721 3.7759,3.56298 5.4129,8.17004 4.9111,13.83129 -0.6031,6.80933 -3.6997,11.95093 -9.29,15.40503 -5.6005,3.4618 -13.0966,4.77198 -22.5032,3.93555 -5.4535,-0.47131 -10.6383,-1.67236 -15.5545,-3.58325 z" />
        <path
           id="path26"
           fill="#ebb940"
           stroke="none"
           d="m 1828.907,849.64441 17.1308,-56.80017 -21.7176,-6.54798 3.7657,-12.48327 58.7666,17.72876 -3.7657,12.47802 -21.7124,-6.54797 -17.1359,56.79749 z" />
        <path
           id="path27"
           fill="#ebb940"
           stroke="none"
           d="m 1913.4255,886.13342 1.4394,-17.36377 -29.7305,-15.79785 -13.583,10.91199 -14.2316,-7.56702 63.3229,-48.29553 11.3328,6.02356 -4.592,79.5061 z m -17.9821,-41.40771 20.4859,10.89172 2.4733,-29.3706 z"
           style="display:inline" />
        <path
           id="path28"
           fill="#ebb940"
           stroke="none"
           d="m 2014.7302,875.33813 11.135,10.02247 -48.3969,53.79712 -8.8493,-7.96229 4.0394,-58.36108 -30.8251,34.26147 -11.0643,-9.94897 48.3971,-53.7998 8.7782,7.89648 -3.9026,58.20154 z"
           style="display:inline" />
        <path
           id="path29"
           fill="#ebb940"
           stroke="none"
           d="m 1985.6991,949.7251 58.9998,-41.88928 28.879,40.66784 -10.1265,7.19177 -19.8473,-27.95141 -13.811,9.80969 18.6612,26.27136 -10.1263,7.1919 -18.6614,-26.27649 -14.8094,10.51929 19.8423,27.95141 -10.1214,7.18945 z"
           style="display:inline" />
      </g>
      <g
         id="g12"
         style="display:inline"
         inkscape:label="EXPLORER SCOUT UNIT">
        <path
           id="path30"
           fill="#ebb940"
           stroke="none"
           d="m 1363.2848,1153.8802 61.5187,-12.5744 8.6667,42.4089 -10.5572,2.159 -5.9602,-29.1425 -14.3941,2.937 5.5955,27.3991 -10.5573,2.1591 -5.6004,-27.3991 -15.443,3.1574 5.9552,29.1479 -10.5572,2.1589 z" />
        <path
           id="path31"
           fill="#ebb940"
           stroke="none"
           d="m 1415.4221,1231.9189 -23.2533,32.3129 -4.8098,-15.4785 16.0411,-21.3044 -25.3211,-8.5503 -4.7793,-15.3924 37.4697,13.4436 22.6754,-31.4765 4.7844,15.395 -15.4378,20.5569 24.3935,8.2739 4.7845,15.3898 z" />
        <path
           id="path32"
           fill="#ebb940"
           stroke="none"
           d="m 1453.9004,1249.1738 11.9104,26.2892 c 2.818,6.2138 3.4363,11.7636 1.8702,16.6443 -1.566,4.8883 -5.1645,8.6008 -10.7904,11.1526 -5.6257,2.5469 -10.7853,2.8003 -15.4936,0.7578 -4.7034,-2.0375 -8.4691,-6.168 -11.2871,-12.3868 l -6.1681,-13.6286 -21.4995,9.7387 -5.7323,-12.6581 z m -14.9464,36.4967 c 2.8636,6.3278 7.0298,8.2563 12.4883,5.7804 2.8128,-1.2721 4.5412,-3.0029 5.1849,-5.1822 0.6385,-2.1845 0.2382,-4.8681 -1.2063,-8.0561 l -5.4382,-12.0092 -16.472,7.4604 z" />
        <path
           id="path33"
           fill="#ebb940"
           stroke="none"
           d="m 1425.9742,1335.7781 53.0547,-33.5672 7.4301,11.7406 -43.501,27.5234 14.997,23.7119 -9.5588,6.0464 z" />
        <path
           id="path34"
           fill="#ebb940"
           stroke="none"
           d="m 1467.0374,1389.8108 c -1.1303,-5.1873 -0.74,-10.3214 1.1759,-15.4226 1.9157,-5.0962 5.2911,-9.8325 10.1364,-14.2216 4.8402,-4.3816 9.8933,-7.2705 15.1542,-8.6693 5.2609,-1.4014 10.4,-1.2671 15.4279,0.3877 5.0225,1.6599 9.6296,4.7971 13.816,9.4169 4.1814,4.6247 6.8473,9.5183 8.0028,14.6827 1.1454,5.1646 0.7654,10.2963 -1.1505,15.3925 -1.9108,5.101 -5.2913,9.8323 -10.1315,14.2215 -4.8402,4.3791 -9.8932,7.273 -15.1541,8.6668 -5.2609,1.4039 -10.4153,1.2822 -15.4633,-0.3549 -5.043,-1.6421 -9.6602,-4.7691 -13.8414,-9.3863 -4.1864,-4.6325 -6.8422,-9.5259 -7.9724,-14.7134 z m 28.3316,12.9141 c 4.7388,-0.2535 9.6854,-2.7015 14.8349,-7.3642 5.1544,-4.6577 8.0838,-9.318 8.7984,-13.9707 0.7146,-4.6503 -0.6993,-8.9303 -4.2472,-12.8481 -3.5478,-3.9228 -7.6581,-5.7425 -12.3413,-5.4712 -4.6778,0.266 -9.5891,2.7394 -14.7435,7.4022 -5.1494,4.6577 -8.094,9.3231 -8.829,13.9961 -0.7349,4.6703 0.6488,8.948 4.156,12.8176 3.5022,3.8722 7.6278,5.6865 12.3717,5.4383 z" />
        <path
           id="path35"
           fill="#ebb940"
           stroke="none"
           d="m 1558.2865,1472.0082 -12.473,-8.5958 2.4176,-22.6653 c 0.1419,-1.774 -0.1013,-3.2943 -0.745,-4.5666 -0.6387,-1.267 -1.7384,-2.443 -3.3046,-3.5174 l -5.6511,-3.8975 -13.8414,20.1009 -11.2921,-7.78 35.6147,-51.7089 23.7651,16.368 c 6.0617,4.1762 9.7311,8.6668 10.9982,13.4714 1.2671,4.8049 0.1672,9.721 -3.2994,14.7588 -2.6963,3.9077 -6.0414,6.4368 -10.0352,7.5822 -3.9938,1.1404 -8.2562,0.7602 -12.7924,-1.1353 2.22,2.5392 3.1626,6.0312 2.8332,10.4914 z m 5.2914,-41.2912 c 2.2554,-0.1369 4.2269,-1.4293 5.9147,-3.8773 1.7181,-2.4885 2.2299,-4.8047 1.5356,-6.9435 -0.6893,-2.1287 -2.676,-4.3333 -5.9502,-6.5838 l -10.9322,-7.5313 -9.797,14.2316 10.9272,7.5315 c 3.274,2.2502 6.0414,3.3147 8.3019,3.1728 z" />
        <path
           id="path36"
           fill="#ebb940"
           stroke="none"
           d="m 1575.022,1479.9907 24.2162,-57.9355 39.9379,16.6999 -4.156,9.939 -27.4497,-11.4695 -5.6662,13.5526 25.8025,10.7902 -4.156,9.9389 -25.8025,-10.7851 -6.0769,14.551 27.4447,11.4695 -4.156,9.9438 z" />
        <path
           id="path37"
           fill="#ebb940"
           stroke="none"
           d="m 1686.8179,1513.8062 -14.8094,-3.1474 -6.4722,-21.8544 c -0.5524,-1.6977 -1.3634,-3.0054 -2.443,-3.9329 -1.0794,-0.9275 -2.5492,-1.5865 -4.4043,-1.9869 l -6.7104,-1.419 -5.0632,23.8716 -13.4156,-2.8433 13.0253,-61.4225 28.2304,5.9856 c 7.202,1.5256 12.3108,4.2626 15.3264,8.2157 3.0156,3.9431 3.8925,8.9099 2.6254,14.8956 -0.9884,4.6426 -3.1068,8.2614 -6.3556,10.8512 -3.2488,2.5899 -7.3288,3.8772 -12.245,3.8672 3.0207,1.49 5.2356,4.3535 6.6395,8.5957 z m -10.9627,-40.1559 c 2.0275,-0.9984 3.3554,-2.9496 3.9685,-5.8488 0.6286,-2.965 0.2128,-5.2964 -1.2468,-7.0095 -1.4596,-1.7029 -4.1356,-2.97 -8.0282,-3.791 l -12.9797,-2.7521 -3.5833,16.9027 12.9798,2.7471 c 3.8925,0.826 6.8574,0.7449 8.8897,-0.2484 z" />
        <path
           id="path38"
           fill="#ebb940"
           stroke="none"
           d="m 1741.0535,1515.9248 c -4.4043,-1.2317 -8.0736,-2.965 -11.0032,-5.2002 l 4.3639,-9.9236 c 6.092,4.161 12.9088,6.2036 20.4504,6.1275 3.9177,-0.035 6.9232,-0.7044 9.0215,-1.9969 2.0931,-1.2924 3.1322,-3.0712 3.1119,-5.3266 -0.02,-2.0174 -1.0035,-3.5833 -2.9395,-4.6933 -1.9362,-1.1048 -5.3826,-2.1793 -10.3191,-3.1981 -5.5296,-1.0744 -9.949,-2.4023 -13.2586,-3.9735 -3.3145,-1.5763 -5.7373,-3.5226 -7.2679,-5.8539 -1.5357,-2.3365 -2.3212,-5.2153 -2.3567,-8.6667 -0.035,-3.7962 0.9883,-7.1919 3.0663,-10.1823 2.083,-2.9851 5.0124,-5.3469 8.7986,-7.0702 3.7859,-1.7231 8.17,-2.6151 13.1571,-2.6607 4.4551,-0.041 8.7479,0.5726 12.8888,1.8397 4.1406,1.2722 7.435,2.9851 9.8882,5.1595 l -4.3589,9.9289 c -5.798,-4.1663 -11.8749,-6.2189 -18.2255,-6.1531 -3.6238,0.035 -6.467,0.7603 -8.5349,2.1744 -2.0628,1.414 -3.0816,3.34 -3.0613,5.7677 0.01,1.4241 0.4258,2.5949 1.2367,3.5122 0.8109,0.9124 2.1489,1.7081 4.0293,2.4075 1.8751,0.6995 4.5411,1.4141 7.9927,2.1541 8.089,1.7028 13.9123,3.938 17.4753,6.6899 3.553,2.7622 5.3622,6.604 5.4029,11.5305 0.056,5.9348 -2.1845,10.6383 -6.7256,14.0948 -4.5412,3.4566 -10.907,5.2153 -19.1025,5.2963 -4.7438,0.046 -9.3255,-0.5473 -13.7299,-1.7839 z" />
        <path
           id="path39"
           fill="#ebb940"
           stroke="none"
           d="m 1811.7661,1509.782 c -5.1241,-1.7791 -9.3662,-4.8351 -12.7264,-9.1685 -3.3604,-4.3384 -5.6157,-9.655 -6.7711,-15.9651 -1.1557,-6.3049 -0.9327,-12.0777 0.6739,-17.3232 1.6016,-5.2459 4.4905,-9.5894 8.6566,-13.0408 4.1612,-3.4515 9.3714,-5.7474 15.6204,-6.8878 4.0902,-0.7501 8.1194,-0.8463 12.0879,-0.2685 3.9634,0.5676 7.3491,1.7434 10.1517,3.5223 l -2.6,10.5268 c -3.0612,-1.5507 -6.0058,-2.5493 -8.834,-3.0004 -2.8281,-0.4458 -5.6713,-0.4056 -8.5349,0.1167 -5.489,1.0085 -9.3864,3.5324 -11.6926,7.5719 -2.311,4.0495 -2.8433,9.4574 -1.6016,16.2286 1.2367,6.7762 3.6593,11.657 7.2579,14.6575 3.5985,2.9902 8.1396,3.9887 13.6285,2.9801 2.8636,-0.527 5.5345,-1.5002 8.0231,-2.9193 2.4835,-1.4141 4.8857,-3.3958 7.197,-5.9401 l 6.163,8.9253 c -1.9869,2.6608 -4.7389,4.9568 -8.2461,6.8979 -3.5072,1.9362 -7.3085,3.2843 -11.3885,4.0292 -6.2541,1.1506 -11.9408,0.8364 -17.0648,-0.9426 z" />
        <path
           id="path40"
           fill="#ebb940"
           stroke="none"
           d="m 1876.493,1495.3425 c -5.205,-1.0339 -9.7614,-3.4414 -13.6691,-7.2324 -3.9076,-3.7911 -6.9081,-8.7833 -8.986,-14.9768 -2.0883,-6.1833 -2.7167,-11.9712 -1.8956,-17.3538 0.816,-5.3825 2.9853,-10.0454 6.5178,-13.9885 3.5224,-3.948 8.2411,-6.9131 14.1557,-8.8998 5.9046,-1.9918 11.4543,-2.4835 16.6543,-1.4748 5.19,1.0085 9.7464,3.4059 13.6488,7.202 3.9129,3.7859 6.903,8.7731 8.9913,14.9614 2.083,6.1985 2.7165,11.9815 1.8955,17.364 -0.8211,5.3775 -2.9904,10.0555 -6.5077,14.029 -3.5174,3.9735 -8.231,6.9537 -14.1405,8.9405 -5.9046,1.9917 -11.4645,2.4683 -16.6645,1.4292 z m 23.1569,-20.8103 c 1.6676,-4.4448 1.3887,-9.9592 -0.826,-16.5481 -2.22,-6.5785 -5.3167,-11.1299 -9.2952,-13.6386 -3.9735,-2.5138 -8.4691,-2.9295 -13.4766,-1.2467 -5.0074,1.6877 -8.3221,4.7286 -9.9389,9.1329 -1.6217,4.3993 -1.3279,9.8882 0.8919,16.4668 2.215,6.5889 5.3117,11.1503 9.3054,13.6946 3.9887,2.5442 8.459,2.9751 13.4107,1.3126 4.9517,-1.6674 8.2613,-4.7286 9.9287,-9.1735 z" />
        <path
           id="path41"
           fill="#ebb940"
           stroke="none"
           d="m 1943.7896,1466.0884 c -6.2645,-1.6067 -11.5862,-6.1884 -15.9753,-13.735 l -18.5346,-31.8744 11.7787,-6.8472 18.8488,32.4167 c 2.5088,4.3079 5.4029,7.0196 8.6973,8.1245 3.2842,1.1048 6.8066,0.5777 10.552,-1.6067 3.7505,-2.1793 5.9604,-4.9872 6.6294,-8.4387 0.6741,-3.4464 -0.223,-7.2984 -2.7014,-11.5607 l -18.8489,-32.4116 11.7787,-6.8498 18.5345,31.8667 c 4.3588,7.5011 5.6868,14.389 3.9787,20.6684 -1.7029,6.2796 -6.3556,11.6318 -13.9529,16.0464 -7.5974,4.4194 -14.5258,5.8182 -20.785,4.2014 z" />
        <path
           id="path42"
           fill="#ebb940"
           stroke="none"
           d="m 2016.7626,1423.373 -35.0218,-37.7131 -14.4244,13.3905 -7.6986,-8.2842 39.0258,-36.2457 7.6986,8.2892 -14.4242,13.3928 35.0318,37.7232 z" />
        <path
           id="path43"
           fill="#ebb940"
           stroke="none"
           d="m 2069.5942,1352.2778 c -6.1833,1.8854 -13.1167,0.75 -20.79,-3.4059 l -32.4268,-17.5463 6.4873,-11.9891 32.9742,17.853 c 4.3891,2.372 8.2715,3.1728 11.6572,2.4074 3.3855,-0.7702 6.1121,-3.0586 8.175,-6.87 2.0628,-3.8088 2.4783,-7.3642 1.262,-10.6585 -1.2214,-3.2945 -3.9988,-6.1149 -8.3323,-8.4589 l -32.9742,-17.848 6.4824,-11.9815 32.4266,17.549 c 7.6228,4.128 12.3465,9.3128 14.1609,15.5621 1.8145,6.2493 0.6336,13.2383 -3.5478,20.9675 -4.1812,7.729 -9.366,12.5389 -15.5545,14.4192 z" />
        <path
           id="path44"
           fill="#ebb940"
           stroke="none"
           d="m 2057.5671,1234.8206 3.7354,-12.4578 60.1401,18.0354 -2.9648,9.8983 -47.282,18.4587 38.3059,11.4847 -3.7148,12.3691 -60.1453,-18.033 2.9497,-9.8121 47.1096,-18.5093 z" />
        <path
           id="path45"
           fill="#ebb940"
           stroke="none"
           d="m 2124.7065,1221.2072 -61.8276,-10.9728 2.4326,-13.6793 61.8177,10.9729 z" />
        <path
           id="path46"
           fill="#ebb940"
           stroke="none"
           d="m 2131.4221,1175.1519 -51.2605,-4.7009 -1.7993,19.6016 -11.2668,-1.0416 4.8706,-53.037 11.2668,1.0365 -1.7991,19.6016 51.2605,4.711 z" />
      </g>
    </g>
  </g>
  <g
     id="layer3"
     inkscape:label="Centre badge"
     style="display:inline"
     inkscape:highlight-color="#35f3e5">
    <g
       id="g7"
       clip-path="url(#clipPath1)"
       style="display:inline"
       inkscape:label="Badge">
      <g
         id="g6"
         style="display:inline"
         inkscape:label="Background">
        <path
           id="path4"
           fill="#363e78"
           stroke="none"
           d="m 2009.6162,1143.9336 c 0,144.2837 -116.9604,261.2394 -261.2389,261.2394 -144.2738,0 -261.2394,-116.9557 -261.2394,-261.2394 0,-144.28065 116.9656,-261.24403 261.2394,-261.24403 144.2785,0 261.2389,116.96338 261.2389,261.24403 z" />
      </g>
      <g
         id="g8"
         style="display:inline"
         inkscape:label="Saltire">
        <path
           id="path6"
           fill="#fefefe"
           stroke="none"
           d="m 2004.6594,1037.7687 -41.6611,-69.59512 -214.621,128.48812 -214.6163,-128.48812 -41.6662,69.59512 177.3289,106.1603 -177.3289,106.1595 41.6662,69.6005 214.6163,-128.4934 214.621,128.4934 41.6611,-69.6005 -177.3238,-106.1595 z" />
      </g>
      <g
         id="g9"
         style="display:inline"
         inkscape:label="Stone">
        <path
           id="path7"
           fill="#898685"
           stroke="none"
           d="m 1638.9506,1480.9742 c 0,0 -11.9892,-34.4698 -7.4937,-65.9539 4.4882,-31.4685 -1.0084,-32.9715 3.2417,-68.9386 4.252,-35.9745 4.252,-32.9767 4.252,-68.9485 0,-35.9796 -26.9782,-64.4556 -16.4847,-83.9406 10.4914,-19.485 -7.8481,-38.9699 -2.4226,-58.4551 5.4182,-19.4797 4.5137,-20.9879 -1.0287,-37.4721 -5.5449,-16.4873 -4.9465,-29.9739 0,-47.9662 4.9466,-17.9878 -5.5449,-25.4835 19.936,-34.4745 25.4809,-8.9884 58.4525,-32.97424 65.9509,-41.96508 7.4957,-8.99622 20.9855,-22.48315 35.9697,-23.98584 14.9916,-1.4978 20.9927,-8.99609 38.9746,0 17.9826,8.99365 29.979,5.99817 35.9698,8.99365 5.9958,2.99768 1.4952,1.5 8.991,31.47632 7.491,29.97905 11.997,37.47215 23.9882,55.45735 11.9867,17.9897 19.4824,26.9834 20.9829,46.4659 1.4952,19.4874 8.991,35.9743 8.991,53.962 0,17.9846 -5.9906,19.485 0,44.9628 6.0006,25.4862 10.5012,29.9817 10.5012,49.4665 0,19.485 1.49,31.4765 0,59.9524 -1.4999,28.4838 -6.0005,43.4655 -6.0005,53.9621 0,10.494 -3.0002,17.9873 -3.0002,28.476 0,10.4888 3.0002,19.485 1.4997,32.9715 -1.4997,13.4922 -13.4917,22.4931 -14.992,37.4799 -1.4947,14.9922 -3.0004,28.474 -3.0004,28.474 z" />
      </g>
    </g>
    <g
       id="g10"
       style="display:inline"
       inkscape:label="Red centre circle">
      <path
         id="path8"
         fill="#af1a1a"
         stroke="none"
         d="m 1748.3773,894.42554 c -137.5731,0 -249.5034,111.93026 -249.5034,249.50806 0,137.5757 111.9303,249.504 249.5034,249.504 137.5831,0 249.506,-111.9283 249.506,-249.504 0,-137.5778 -111.9229,-249.50806 -249.506,-249.50806 z m 0,522.48036 c -150.5177,0 -272.9721,-122.4519 -272.9721,-272.9723 0,-150.52003 122.4544,-272.97693 272.9721,-272.97693 150.5174,0 272.9821,122.4569 272.9821,272.97693 0,150.5204 -122.4647,272.9723 -272.9821,272.9723 z" />
    </g>
    <g
       id="INSERT-1-"
       style="display:inline"
       inkscape:label="SCOUT LOGO">
      <g
         id="SPLINE">
        <path
           id="path11"
           fill="#ebb940"
           stroke="#ebb940"
           stroke-width="2.5"
           d="m 1701.5804,1086.2964 c 5.5201,8.4592 8.3023,18.1415 9.169,24.709 h 10.0799 c -0.8444,-8.0247 -4.0819,-19.7829 -10.8629,-30.1795 -8.0641,-12.3687 -18.5675,-18.9101 -30.3675,-18.9157 h -0.071 c -8.9994,0 -17.4207,4.043 -23.1114,11.0986 -5.9846,7.4162 -8.2485,17.0077 -6.2132,26.3172 l 9.7782,-2.1411 c -1.364,-6.2331 0.216,-12.9217 4.223,-17.8906 3.8406,-4.7547 9.2766,-7.373 15.3268,-7.373 h 0.05 c 10.4407,0.01 17.7266,7.8204 21.9991,14.3751 z" />
      </g>
      <g
         id="HATCH">
        <path
           id="path12"
           fill="#ebb940"
           stroke="#ebb940"
           stroke-width="2.5"
           d="m 1701.58,1086.2964 c 5.5201,8.4596 8.3028,18.142 9.1693,24.7097 h 10.0799 c -0.8443,-8.0248 -4.0818,-19.7836 -10.8625,-30.1802 -8.0644,-12.3683 -18.568,-18.9104 -30.3678,-18.916 h -0.072 c -8.9993,0 -17.4202,4.0433 -23.1113,11.0989 -5.9849,7.4165 -8.2488,17.0074 -6.2134,26.3166 l 9.7787,-2.1402 c -1.3644,-6.2332 0.2164,-12.922 4.2231,-17.8903 3.8402,-4.7552 9.2763,-7.3735 15.3263,-7.3735 h 0.051 c 10.4409,0.01 17.7272,7.8205 21.9988,14.375 z" />
      </g>
      <g
         id="SPLINE-1-">
        <path
           id="path13"
           fill="#ebb940"
           stroke="#ebb940"
           stroke-width="2.5"
           d="m 1774.337,1156.4296 c -3.9188,-5.4235 -6.7749,-11.9156 -8.0354,-18.1619 H 1756.13 c 0.7811,4.8766 2.8535,12.9293 8.3127,21.4224 -3.421,5.7286 -9.5612,11.3814 -16.0549,14.7631 0,0 -0.01,0 -0.01,-0.01 0,0 -0.01,0 -0.011,0.01 -6.4935,-3.3817 -12.6339,-9.0345 -16.0548,-14.7631 5.4594,-8.4931 7.5318,-16.5458 8.3128,-21.4224 h -10.1718 c -1.2605,6.2463 -4.1162,12.7384 -8.0352,18.1619 l -1.7023,2.3653 1.2148,2.6525 c 4.2495,9.2726 14.0634,18.5704 24.4202,23.1355 l 2.0125,0.8904 0.014,-0.01 0.014,0.01 2.0124,-0.8904 c 10.3567,-4.5651 20.1709,-13.8629 24.4203,-23.1355 l 1.2148,-2.6525 z" />
      </g>
      <g
         id="HATCH-1-">
        <path
           id="path14"
           fill="#ebb940"
           stroke="#ebb940"
           stroke-width="2.5"
           d="m 1774.337,1156.4296 c -3.9195,-5.4241 -6.7749,-11.9156 -8.0354,-18.1619 H 1756.13 c 0.7815,4.8766 2.8532,12.9301 8.3127,21.4224 -3.4206,5.729 -9.5612,11.3814 -16.0549,14.7625 0,0 -0.01,0 -0.011,-0.01 0,0 -0.01,0 -0.01,0.01 -6.4936,-3.3811 -12.6342,-9.0335 -16.0549,-14.7625 5.4596,-8.4923 7.5313,-16.5458 8.3128,-21.4224 h -10.1714 c -1.2605,6.2463 -4.1162,12.7378 -8.0357,18.1619 l -1.7021,2.3653 1.2141,2.6527 c 4.2496,9.2719 14.0635,18.5702 24.4205,23.1355 l 2.0122,0.8899 0.014,-0.01 0.014,0.01 2.0133,-0.8899 c 10.3558,-4.5653 20.1708,-13.8636 24.4194,-23.1355 l 1.2154,-2.6527 z" />
      </g>
      <g
         id="SPLINE-2-">
        <path
           id="path15"
           fill="#ebb940"
           stroke="#ebb940"
           stroke-width="2.5"
           d="m 1795.1744,1086.2964 c -5.5201,8.4592 -8.3023,18.1415 -9.1694,24.709 h -10.0797 c 0.8447,-8.0247 4.0825,-19.7829 10.8629,-30.1795 8.0641,-12.3687 18.5676,-18.9101 30.3677,-18.9157 h 0.072 c 8.9992,0 17.4202,4.043 23.1115,11.0986 5.9842,7.4162 8.248,17.0077 6.2126,26.3172 l -9.7776,-2.1411 c 1.3636,-6.2331 -0.2165,-12.9217 -4.2236,-17.8906 -3.8404,-4.7547 -9.2765,-7.373 -15.3264,-7.373 h -0.051 c -10.4404,0.01 -17.7264,7.8204 -21.9988,14.3751 z" />
      </g>
      <g
         id="HATCH-2-">
        <path
           id="path16"
           fill="#ebb940"
           stroke="#ebb940"
           stroke-width="2.5"
           d="m 1795.1748,1086.2964 c -5.5201,8.4596 -8.303,18.142 -9.1694,24.7097 h -10.0799 c 0.8445,-8.0248 4.0819,-19.7836 10.8627,-30.1802 8.0641,-12.3683 18.5679,-18.9104 30.3677,-18.916 h 0.072 c 8.9996,0 17.4202,4.0433 23.1115,11.0989 5.9838,7.4165 8.2477,17.0074 6.2132,26.3166 l -9.7784,-2.1402 c 1.364,-6.2332 -0.2163,-12.922 -4.2234,-17.8903 -3.84,-4.7552 -9.276,-7.3735 -15.326,-7.3735 h -0.051 c -10.441,0.01 -17.7271,7.8205 -21.9987,14.375 z" />
      </g>
      <g
         id="INSERT">
        <g
           id="SPLINE-3-">
          <path
             id="path17"
             fill="#ebb940"
             stroke="#ebb940"
             stroke-width="2.5"
             d="m 1730.8826,1111.0054 h 10.0791 c -1.2574,-11.6131 -5.8125,-21.7318 -9.851,-30.6955 -4.0315,-8.9422 -7.8373,-17.3924 -7.7828,-25.8125 0.084,-9.6828 5.6053,-19.5534 14.7729,-26.4165 1.6062,-1.2094 6.1723,-4.7137 10.2765,-8.4824 4.1043,3.7687 8.6702,7.273 10.2765,8.4824 9.1679,6.8631 14.6889,16.7337 14.7733,26.4165 0.054,8.4201 -3.7517,16.8703 -7.7829,25.8125 -4.0386,8.9637 -8.5939,19.0824 -9.8512,30.6955 h 10.0791 c 1.2463,-9.5896 5.1358,-18.2187 8.9028,-26.5834 4.4889,-9.9663 8.73,-19.3815 8.6653,-30.0004 -0.1162,-12.799 -7.135,-25.6328 -18.7787,-34.3481 -1.3733,-1.0385 -8.5175,-6.4821 -12.6238,-10.9046 l -3.6604,-3.9475 -3.6603,3.9475 c -4.1066,4.4225 -11.2506,9.8661 -12.6239,10.9046 -11.6436,8.7153 -18.6622,21.5491 -18.7786,34.3481 -0.065,10.6189 4.1761,20.0341 8.6652,30.0004 3.7671,8.3647 7.6568,16.9938 8.9029,26.5834 z" />
        </g>
        <g
           id="HATCH-3-">
          <path
             id="path18"
             fill="#ebb940"
             stroke="#ebb940"
             stroke-width="2.5"
             d="m 1730.8827,1111.0061 h 10.0788 c -1.2574,-11.6132 -5.8126,-21.7329 -9.8502,-30.6958 -4.0323,-8.943 -7.8382,-17.3925 -7.7832,-25.8135 0.084,-9.6825 5.6054,-19.5527 14.7724,-26.4161 1.6059,-1.2098 6.1724,-4.7133 10.2763,-8.4817 4.1051,3.7684 8.6704,7.2719 10.2776,8.4817 9.167,6.8634 14.6883,16.7336 14.7719,26.4161 0.055,8.421 -3.7506,16.8705 -7.7829,25.8135 -4.0376,8.9629 -8.5931,19.0826 -9.8502,30.6958 h 10.0789 c 1.2463,-9.59 5.1358,-18.2194 8.9032,-26.5841 4.4882,-9.9662 8.7298,-19.3816 8.6649,-30.0002 -0.1159,-12.7996 -7.135,-25.6325 -18.7791,-34.3482 -1.3729,-1.0386 -8.5171,-6.4825 -12.6228,-10.9043 l -3.6615,-3.9474 -3.6602,3.9474 c -4.1062,4.4218 -11.25,9.8657 -12.6231,10.9043 -11.6439,8.7157 -18.6631,21.5486 -18.7789,34.3482 -0.065,10.6186 4.1756,20.034 8.6648,30.0002 3.7674,8.3647 7.6571,16.9941 8.9033,26.5841 z" />
        </g>
        <g
           id="POLYLINE">
          <path
             id="path19"
             fill="#ebb940"
             stroke="#ebb940"
             stroke-width="2.5"
             d="m 1691.1931,1119.838 v 9.5956 h 114.3683 v -9.5956 h -114.3683" />
        </g>
        <g
           id="HATCH-4-">
          <path
             id="path20"
             fill="#ebb940"
             stroke="#ebb940"
             stroke-width="2.5"
             d="m 1691.1932,1119.8376 v 9.5962 h 114.3682 v -9.5962 z" />
        </g>
      </g>
    </g>
  </g>
</svg>
