<?xml version="1.0" encoding="UTF-8" standalone="no"?>
<!-- Generated by Pixelmator Pro 3.6.7 -->

<svg
   width="3507"
   height="2480"
   viewBox="1370 586 900 1110"
   version="1.1"
   id="svg15"
   sodipodi:docname="BORE STANE EXPLORERS Emb Shield.svg"
   inkscape:version="1.3.2 (091e20e, 2023-11-25)"
   xmlns:inkscape="http://www.inkscape.org/namespaces/inkscape"
   xmlns:sodipodi="http://sodipodi.sourceforge.net/DTD/sodipodi-0.dtd"
   xmlns="http://www.w3.org/2000/svg"
   xmlns:svg="http://www.w3.org/2000/svg">
  <defs
     id="defs15" />
  <sodipodi:namedview
     id="namedview15"
     pagecolor="#ffffff"
     bordercolor="#000000"
     borderopacity="0.25"
     inkscape:showpageshadow="2"
     inkscape:pageopacity="0.0"
     inkscape:pagecheckerboard="0"
     inkscape:deskcolor="#d1d1d1"
     inkscape:zoom="0.5"
     inkscape:cx="1751"
     inkscape:cy="1185"
     inkscape:window-width="1680"
     inkscape:window-height="932"
     inkscape:window-x="0"
     inkscape:window-y="25"
     inkscape:window-maximized="1"
     inkscape:current-layer="layer4" />
  <g
     inkscape:groupmode="layer"
     id="layer6"
     inkscape:label="Background">
    <path
       id="Path"
       fill="#000000"
       stroke="#000000"
       stroke-width="33.6667"
       d="m 2231.6687,1439.2722 c -0.6992,26.5534 -20.9546,57.5342 -44.9741,68.833 l -323.0167,152.0091 c -24.0351,11.3139 -63.3523,11.3139 -87.3713,0 l -323.0319,-152.0091 c -24.0238,-11.2988 -44.2758,-42.2796 -44.983,-68.833 l -21.5441,-800.95677 c -0.7072,-26.54114 20.3695,-46.82056 46.8761,-45.05688 l 338.1998,22.55078 c 26.4866,1.75952 69.8307,1.75952 96.3335,0 l 338.1885,-22.55078 c 26.4946,-1.76368 47.5905,18.51574 46.8679,45.05688 z"
       style="display:inline" />
  </g>
  <g
     inkscape:groupmode="layer"
     id="layer4"
     inkscape:label="Shield"
     inkscape:highlight-color="#d4850b">
    <path
       id="path1"
       fill="#363e78"
       stroke="none"
       d="m 2220.7161,1487.5466 -400.7275,193.1214 -395.9191,-193.1214 -38.6221,-886.23007 429.7556,17.69812 439.3148,-17.69812 z"
       style="display:inline"
       inkscape:label="Blue background" />
    <path
       id="path2"
       fill="#fefefe"
       stroke="none"
       d="m 2254.5259,601.30835 -49.9722,2.01135 -392.8153,235.16516 -393.9592,-235.85205 -32.3238,-1.32446 7.8769,180.69531 256.3794,153.48242 -243.3365,145.67552 8.2341,189.075 397.1212,-237.7421 416.8349,249.5364 7.2364,-189.673 -262.0364,-156.87182 274.27,-164.19921 z"
       style="display:inline"
       inkscape:label="Saltire" />
    <g
       id="g2"
       clip-path="url(#clipPath1)"
       style="display:inline"
       inkscape:label="Stone">
      <path
         id="path4"
         fill="#898685"
         stroke="none"
         d="m 1599.2567,1904.1893 c 0,0 -23.3044,-67.0057 -14.5668,-128.1898 8.7369,-61.1684 -26.1101,-64.0908 -17.8358,-134.0124 8.2654,-69.9368 8.2654,-64.0987 8.2654,-134.0154 0,-69.9289 -28.3058,-125.2948 -7.9082,-163.1663 20.3855,-37.8713 -15.2427,-75.7507 -4.6987,-113.6268 10.5287,-37.8633 8.7762,-40.7824 -2.0034,-72.8236 -10.7725,-32.0535 -9.6211,-58.265 0,-93.2414 9.621,-34.9604 -10.7725,-49.5282 38.7475,-67.00191 49.5433,-17.48657 113.6188,-64.10681 128.1937,-81.57751 14.5749,-17.47437 40.7944,-43.70923 69.9167,-46.61609 29.1385,-2.91174 40.7984,-17.48669 75.7556,0 34.9483,17.47376 58.2762,11.6438 69.9369,17.47376 11.6438,5.82995 2.8989,2.92309 17.4585,61.18383 14.5669,58.27292 23.3278,72.84062 46.6403,107.80102 23.2964,34.9684 37.8633,52.4421 40.7702,90.3142 2.9152,37.8794 17.4747,69.9289 17.4747,104.8974 0,34.9523 -11.6286,37.8592 0,87.3912 11.6599,49.5312 20.4048,58.269 20.4048,96.1565 0,37.8712 2.915,61.187 0,116.5328 -2.907,55.3621 -11.6599,84.4884 -11.6599,104.886 0,20.3969 -5.814,34.9718 -5.814,55.3539 0,20.3889 5.814,37.8715 2.9302,64.0908 -2.9302,26.2268 -26.2427,43.7014 -29.1656,72.8357 -2.9151,29.1506 -5.8221,55.3541 -5.8221,55.3541 z" />
    </g>
    <g
       id="INSERT-1-"
       style="display:inline"
       inkscape:label="Scout Logo">
      <g
         id="SPLINE">
        <path
           id="path6"
           fill="#ebb940"
           stroke="#ebb940"
           stroke-width="2.5"
           d="m 1721.0636,1103.4192 c 9.6608,14.8049 14.5303,31.7506 16.0472,43.2446 h 17.6414 c -1.478,-14.0445 -7.1442,-34.623 -19.0118,-52.8187 -14.1134,-21.6471 -32.4961,-33.0956 -53.1479,-33.1057 h -0.1252 c -15.7503,0 -30.4887,7.0762 -40.4481,19.4244 -10.474,12.9796 -14.4364,29.7661 -10.8741,46.0593 l 17.1132,-3.7474 c -2.3873,-10.9089 0.3783,-22.615 7.391,-31.3111 6.7217,-8.3216 16.2353,-12.904 26.8241,-12.904 h 0.088 c 18.2727,0.011 31.0241,13.6867 38.5018,25.1586 z" />
      </g>
      <g
         id="HATCH">
        <path
           id="path7"
           fill="#ebb940"
           stroke="#ebb940"
           stroke-width="2.5"
           d="m 1721.0627,1103.4192 c 9.6612,14.8054 14.5315,31.7511 16.0479,43.2457 h 17.6414 c -1.4778,-14.0445 -7.144,-34.6241 -19.011,-52.8198 -14.114,-21.6464 -32.4972,-33.0963 -53.1485,-33.106 h -0.1255 c -15.7502,0 -30.4881,7.0765 -40.4483,19.4247 -10.4746,12.98 -14.4368,29.7655 -10.8745,46.0582 l 17.1141,-3.7457 c -2.3878,-10.9089 0.3785,-22.6156 7.3912,-31.311 6.7209,-8.322 16.2349,-12.9044 26.8234,-12.9044 h 0.089 c 18.2733,0.012 31.0253,13.687 38.5012,25.1583 z" />
      </g>
      <g
         id="SPLINE-1-">
        <path
           id="path8"
           fill="#ebb940"
           stroke="#ebb940"
           stroke-width="2.5"
           d="m 1848.3987,1226.1631 c -6.8587,-9.4921 -11.8572,-20.8541 -14.0633,-31.7863 h -17.8018 c 1.3672,8.5348 4.9941,22.6287 14.5484,37.4927 -5.9872,10.0258 -16.7335,19.9191 -28.0984,25.8378 -0.01,0 -0.012,-0.01 -0.018,-0.011 -0.01,0 -0.012,0.01 -0.019,0.011 -11.3646,-5.9187 -22.1115,-15.812 -28.0983,-25.8378 9.5547,-14.864 13.1817,-28.9579 14.5486,-37.4927 h -17.8022 c -2.2061,10.9322 -7.204,22.2942 -14.0628,31.7863 l -2.9795,4.1398 2.1263,4.642 c 7.4373,16.2286 24.6131,32.5013 42.739,40.4908 l 3.5222,1.5583 0.025,-0.012 0.025,0.012 3.522,-1.5583 c 18.1257,-7.9895 35.3021,-24.2622 42.7394,-40.4908 l 2.126,-4.642 z" />
      </g>
      <g
         id="HATCH-1-">
        <path
           id="path9"
           fill="#ebb940"
           stroke="#ebb940"
           stroke-width="2.5"
           d="m 1848.3987,1226.1631 c -6.8596,-9.4931 -11.8572,-20.8541 -14.0633,-31.7863 h -17.8018 c 1.3678,8.5348 4.9935,22.6298 14.5484,37.4927 -5.9867,10.0264 -16.7335,19.9191 -28.0984,25.8366 -0.01,0 -0.012,-0.01 -0.019,-0.01 -0.01,0 -0.012,0.01 -0.017,0.01 -11.3648,-5.9175 -22.1118,-15.8102 -28.0985,-25.8366 9.555,-14.8629 13.1807,-28.9579 14.5486,-37.4927 h -17.8017 c -2.206,10.9322 -7.2038,22.2932 -14.0635,31.7863 l -2.979,4.1398 2.1249,4.6425 c 7.4375,16.227 24.6134,32.5008 42.7396,40.4908 l 3.5218,1.5572 0.025,-0.012 0.025,0.012 3.5235,-1.5572 c 18.1241,-7.99 35.3021,-24.2638 42.7378,-40.4908 l 2.1271,-4.6425 z" />
      </g>
      <g
         id="SPLINE-2-">
        <path
           id="path10"
           fill="#ebb940"
           stroke="#ebb940"
           stroke-width="2.5"
           d="m 1884.8674,1103.4192 c -9.661,14.8049 -14.5304,31.7506 -16.0478,43.2446 h -17.6411 c 1.4784,-14.0445 7.1449,-34.623 19.0116,-52.8187 14.1137,-21.6471 32.4963,-33.0956 53.1483,-33.1057 h 0.1253 c 15.75,0 30.4881,7.0762 40.4487,19.4244 10.4735,12.9796 14.4353,29.7661 10.873,46.0593 l -17.1123,-3.7474 c 2.3863,-10.9089 -0.379,-22.615 -7.392,-31.3111 -6.7215,-8.3216 -16.2351,-12.904 -26.8235,-12.904 h -0.089 c -18.2721,0.011 -31.024,13.6867 -38.5011,25.1586 z" />
      </g>
      <g
         id="HATCH-2-">
        <path
           id="path11"
           fill="#ebb940"
           stroke="#ebb940"
           stroke-width="2.5"
           d="m 1884.868,1103.4192 c -9.6611,14.8054 -14.5315,31.7511 -16.0479,43.2457 h -17.6411 c 1.4779,-14.0445 7.1439,-34.6241 19.0111,-52.8198 14.1137,-21.6464 32.4968,-33.0963 53.1483,-33.106 h 0.1253 c 15.7505,0 30.4881,7.0765 40.4487,19.4247 10.4724,12.98 14.4348,29.7655 10.8741,46.0582 l -17.1139,-3.7457 c 2.3873,-10.9089 -0.3785,-22.6156 -7.3915,-31.311 -6.7204,-8.322 -16.2346,-12.9044 -26.8228,-12.9044 h -0.089 c -18.2734,0.012 -31.0253,13.687 -38.5013,25.1583 z" />
      </g>
      <g
         id="INSERT">
        <g
           id="SPLINE-3-">
          <path
             id="path12"
             fill="#ebb940"
             stroke="#ebb940"
             stroke-width="2.5"
             d="m 1772.3467,1146.6638 h 17.6401 c -2.2005,-20.3246 -10.1728,-38.0339 -17.2407,-53.7218 -7.0557,-15.6505 -13.7164,-30.4394 -13.6212,-45.1759 0.1473,-16.9464 9.8103,-34.2217 25.8548,-46.2329 2.8112,-2.1167 10.8025,-8.24975 17.9858,-14.84546 7.1829,6.59571 15.174,12.72876 17.9852,14.84546 16.0452,12.0112 25.7079,29.2865 25.8553,46.2329 0.095,14.7365 -6.5658,29.5254 -13.6211,45.1759 -7.0682,15.6879 -15.0404,33.3972 -17.2411,53.7218 h 17.6401 c 2.1812,-16.7834 8.9885,-31.8856 15.5813,-46.5251 7.8563,-17.4427 15.2786,-33.9204 15.1654,-52.5052 -0.2034,-22.4002 -12.4873,-44.8614 -32.8656,-60.11458 -2.4034,-1.81763 -14.9065,-11.3446 -22.0935,-19.08447 l -6.406,-6.90882 -6.4062,6.90882 c -7.1874,7.73987 -19.6903,17.26684 -22.0936,19.08447 -20.3785,15.25318 -32.662,37.71438 -32.8658,60.11458 -0.1131,18.5848 7.309,35.0625 15.1656,52.5052 6.5928,14.6395 13.4004,29.7417 15.5812,46.5251 z" />
        </g>
        <g
           id="HATCH-3-">
          <path
             id="path13"
             fill="#ebb940"
             stroke="#ebb940"
             stroke-width="2.5"
             d="m 1772.3469,1146.6649 h 17.6397 c -2.2006,-20.3247 -10.1731,-38.0359 -17.2395,-53.7223 -7.0573,-15.6516 -13.718,-30.4394 -13.6216,-45.1775 0.147,-16.9459 9.8099,-34.2203 25.8536,-46.2324 2.8107,-2.1173 10.8029,-8.24876 17.9854,-14.8441 7.1845,6.59534 15.1745,12.7268 17.9874,14.8441 16.0435,12.0121 25.7067,29.2865 25.853,46.2324 0.097,14.7381 -6.5641,29.5259 -13.6211,45.1775 -7.0665,15.6864 -15.0393,33.3976 -17.2393,53.7223 h 17.6394 c 2.1812,-16.7838 8.9885,-31.8867 15.582,-46.5262 7.8551,-17.4424 15.2784,-33.9208 15.1647,-52.5049 -0.2029,-22.4015 -12.4873,-44.8609 -32.8661,-60.11463 -2.4029,-1.81788 -14.906,-11.34546 -22.0919,-19.08423 l -6.4081,-6.90845 -6.4061,6.90845 c -7.1865,7.73877 -19.689,17.26635 -22.0922,19.08423 -20.3788,15.25373 -32.6632,37.71313 -32.866,60.11463 -0.1141,18.5841 7.3079,35.0625 15.1647,52.5049 6.5934,14.6395 13.401,29.7424 15.582,46.5262 z" />
        </g>
        <g
           id="POLYLINE">
          <path
             id="path14"
             fill="#ebb940"
             stroke="#ebb940"
             stroke-width="2.5"
             d="m 1702.8843,1162.1219 v 16.794 h 200.1618 v -16.794 h -200.1618" />
        </g>
        <g
           id="HATCH-4-">
          <path
             id="path15"
             fill="#ebb940"
             stroke="#ebb940"
             stroke-width="2.5"
             d="m 1702.8845,1162.1215 v 16.795 h 200.1616 v -16.795 z" />
        </g>
      </g>
    </g>
    <g
       id="g3"
       style="display:inline"
       inkscape:label="Red border">
      <path
         id="path5"
         fill="none"
         stroke="#af1a1a"
         stroke-width="33.6667"
         d="m 2231.6687,1439.2762 c -0.6992,26.5453 -20.9546,57.5263 -44.9741,68.8371 l -323.0167,152.001 c -24.0312,11.3139 -63.3564,11.3139 -87.3713,0 l -323.0319,-152.001 c -24.0238,-11.3108 -44.2798,-42.2918 -44.983,-68.8371 l -21.5441,-800.96077 c -0.7072,-26.54114 20.3695,-46.82056 46.8761,-45.05688 l 338.1966,22.55078 c 26.4939,1.75952 69.8339,1.75952 96.3367,0 l 338.1885,-22.55078 c 26.4946,-1.76368 47.5905,18.51574 46.8679,45.05688 z" />
    </g>
  </g>
  <g
     id="ARTWORK"
     style="display:inline">
    <g
       id="g1"
       style="display:inline">
      <clipPath
         id="clipPath1">
        <path
           d="m 1815.203,619.01465 -429.7404,-17.7063 38.6069,886.23835 395.9191,193.1293 400.7275,-193.1293 33.8017,-886.23835 z"
           id="path3" />
      </clipPath>
    </g>
  </g>
</svg>
